<?xml version="1.0" standalone="no"?>
<!DOCTYPE svg PUBLIC "-//W3C//DTD SVG 20010904//EN"
 "http://www.w3.org/TR/2001/REC-SVG-20010904/DTD/svg10.dtd">
<svg version="1.0" xmlns="http://www.w3.org/2000/svg"
 width="35px" height="35px" viewBox="0 0 2000.000000 2000.000000" fill="#fff"
 preserveAspectRatio="xMidYMid meet">

<g transform="translate(0.000000,2000.000000) scale(0.100000,-0.100000)"
fill="#fff" stroke="none">
<path d="M9907 14790 c-64 -17 -138 -60 -186 -109 -35 -37 -352 -584 -1326
-2292 -704 -1234 -1309 -2302 -1345 -2374 -349 -699 -440 -1510 -255 -2265
142 -576 435 -1113 838 -1537 748 -784 1795 -1136 2887 -972 379 58 795 205
1127 400 257 152 440 295 663 518 536 538 863 1207 966 1976 22 163 25 588 6
750 -49 410 -160 786 -334 1135 -35 69 -639 1135 -1343 2370 -1019 1786 -1290
2254 -1328 2293 -68 69 -156 108 -255 113 -42 2 -94 -1 -115 -6z m169 -1261
c17 -5 44 -24 61 -42 43 -45 2134 -3715 2204 -3867 102 -222 176 -474 216
-737 12 -77 16 -177 17 -348 0 -274 -18 -421 -78 -650 -52 -195 -50 -192 -71
-104 -74 307 -256 661 -470 919 -201 241 -441 444 -764 648 -153 96 -514 274
-726 357 -453 179 -736 353 -972 599 -256 266 -389 552 -434 931 -14 121 -6
388 16 530 31 198 103 459 181 652 44 110 565 1026 609 1072 52 53 122 67 211
40z m-1682 -2680 c13 -83 107 -344 170 -472 195 -398 514 -741 938 -1007 155
-97 458 -246 683 -335 637 -253 1065 -561 1329 -954 98 -147 197 -378 264
-616 108 -381 80 -621 -103 -895 -101 -153 -223 -249 -460 -365 -274 -134
-626 -230 -979 -266 -149 -15 -471 -7 -616 16 -547 84 -1027 325 -1411 705
-418 416 -673 922 -766 1527 -23 149 -23 545 0 696 39 253 101 473 200 700 57
131 725 1319 738 1311 3 -2 9 -22 13 -45z"/>
</g>
</svg>
